<svg xmlns="http://www.w3.org/2000/svg" xmlns:xlink="http://www.w3.org/1999/xlink" width="500" zoomAndPan="magnify" viewBox="0 0 375 374.999991" height="500" preserveAspectRatio="xMidYMid meet" version="1.0"><defs><g/><clipPath id="138a168821"><path d="M 178 161.363281 L 194 161.363281 L 194 191 L 178 191 Z M 178 161.363281 " clip-rule="nonzero"/></clipPath><clipPath id="0decf5e470"><path d="M 207 171 L 208.132812 171 L 208.132812 177 L 207 177 Z M 207 171 " clip-rule="nonzero"/></clipPath><clipPath id="755bb51931"><path d="M 163.882812 171 L 165 171 L 165 177 L 163.882812 177 Z M 163.882812 171 " clip-rule="nonzero"/></clipPath></defs><g clip-path="url(#138a168821)"><path fill="#2d2a2a" d="M 193.15625 170.613281 C 192.761719 170.613281 192.441406 170.9375 192.441406 171.335938 L 192.441406 172.050781 L 191.757812 172.050781 L 191.757812 171.25 C 191.757812 171.035156 191.640625 170.84375 191.46875 170.742188 L 191.46875 166.851562 C 191.46875 163.824219 189.019531 161.363281 186.007812 161.363281 C 182.996094 161.363281 180.542969 163.824219 180.542969 166.851562 L 180.542969 170.738281 C 180.371094 170.84375 180.253906 171.03125 180.253906 171.25 L 180.253906 172.050781 L 179.570312 172.050781 L 179.570312 171.332031 C 179.570312 170.9375 179.25 170.613281 178.855469 170.613281 C 178.460938 170.613281 178.140625 170.9375 178.140625 171.332031 L 178.140625 177.398438 C 178.140625 181.324219 180.960938 184.632812 184.6875 185.277344 L 184.6875 187.996094 L 182.488281 187.996094 C 181.253906 187.996094 180.253906 189 180.253906 190.242188 C 180.253906 190.445312 180.367188 190.621094 180.53125 190.710938 C 180.605469 190.75 180.695312 190.773438 180.785156 190.773438 L 191.226562 190.773438 C 191.316406 190.773438 191.402344 190.75 191.480469 190.710938 C 191.644531 190.621094 191.757812 190.445312 191.757812 190.242188 C 191.757812 190.222656 191.753906 190.207031 191.753906 190.1875 C 191.753906 190.171875 191.753906 190.152344 191.753906 190.136719 C 191.699219 188.945312 190.71875 187.996094 189.519531 187.996094 L 187.324219 187.996094 L 187.324219 185.277344 C 191.035156 184.644531 193.871094 181.390625 193.871094 177.484375 L 193.871094 171.335938 C 193.871094 170.9375 193.550781 170.613281 193.15625 170.613281 Z M 192.4375 177.402344 C 192.4375 180.960938 189.609375 183.917969 186.070312 183.949219 C 182.492188 183.984375 179.570312 181.070312 179.570312 177.484375 L 179.570312 172.574219 L 180.253906 172.574219 L 180.253906 173.375 C 180.253906 173.59375 180.371094 173.78125 180.542969 173.886719 L 180.542969 177.683594 C 180.542969 180.71875 182.988281 183.175781 186.007812 183.175781 C 189.023438 183.175781 191.46875 180.71875 191.46875 177.683594 L 191.46875 173.886719 C 191.640625 173.78125 191.757812 173.59375 191.757812 173.375 L 191.757812 172.574219 L 192.441406 172.574219 L 192.441406 177.402344 Z M 192.4375 177.402344 " fill-opacity="1" fill-rule="nonzero"/></g><path fill="#2d2a2a" d="M 201.601562 176.195312 C 201.8125 176.195312 201.980469 176.023438 201.980469 175.8125 L 201.980469 171.746094 C 201.980469 171.535156 201.8125 171.363281 201.601562 171.363281 C 201.390625 171.363281 201.222656 171.535156 201.222656 171.746094 L 201.222656 175.8125 C 201.222656 176.023438 201.390625 176.195312 201.601562 176.195312 Z M 201.601562 176.195312 " fill-opacity="1" fill-rule="nonzero"/><path fill="#2d2a2a" d="M 197.015625 183.4375 C 197.222656 183.4375 197.394531 183.269531 197.394531 183.058594 L 197.394531 164.5 C 197.394531 164.289062 197.222656 164.117188 197.015625 164.117188 C 196.804688 164.117188 196.632812 164.289062 196.632812 164.5 L 196.632812 183.058594 C 196.632812 183.269531 196.804688 183.4375 197.015625 183.4375 Z M 197.015625 183.4375 " fill-opacity="1" fill-rule="nonzero"/><path fill="#2d2a2a" d="M 200.074219 178.609375 C 200.28125 178.609375 200.453125 178.4375 200.453125 178.226562 L 200.453125 169.328125 C 200.453125 169.117188 200.28125 168.949219 200.074219 168.949219 C 199.863281 168.949219 199.691406 169.121094 199.691406 169.328125 L 199.691406 178.226562 C 199.691406 178.4375 199.863281 178.609375 200.074219 178.609375 Z M 200.074219 178.609375 " fill-opacity="1" fill-rule="nonzero"/><path fill="#2d2a2a" d="M 198.542969 181.023438 C 198.753906 181.023438 198.921875 180.851562 198.921875 180.640625 L 198.921875 166.914062 C 198.921875 166.703125 198.753906 166.53125 198.542969 166.53125 C 198.332031 166.53125 198.164062 166.703125 198.164062 166.914062 L 198.164062 180.640625 C 198.164062 180.851562 198.332031 181.023438 198.542969 181.023438 Z M 198.542969 181.023438 " fill-opacity="1" fill-rule="nonzero"/><path fill="#2d2a2a" d="M 195.292969 181.023438 C 195.503906 181.023438 195.675781 180.851562 195.675781 180.640625 L 195.675781 166.914062 C 195.675781 166.703125 195.503906 166.53125 195.292969 166.53125 C 195.085938 166.53125 194.914062 166.703125 194.914062 166.914062 L 194.914062 180.640625 C 194.914062 180.851562 195.085938 181.023438 195.292969 181.023438 Z M 195.292969 181.023438 " fill-opacity="1" fill-rule="nonzero"/><g clip-path="url(#0decf5e470)"><path fill="#2d2a2a" d="M 207.71875 176.195312 C 207.929688 176.195312 208.097656 176.023438 208.097656 175.8125 L 208.097656 171.746094 C 208.097656 171.535156 207.925781 171.363281 207.71875 171.363281 C 207.507812 171.363281 207.339844 171.535156 207.339844 171.746094 L 207.339844 175.8125 C 207.339844 176.023438 207.507812 176.195312 207.71875 176.195312 Z M 207.71875 176.195312 " fill-opacity="1" fill-rule="nonzero"/></g><path fill="#2d2a2a" d="M 206.1875 178.609375 C 206.398438 178.609375 206.570312 178.4375 206.570312 178.226562 L 206.570312 169.328125 C 206.570312 169.117188 206.398438 168.949219 206.1875 168.949219 C 205.976562 168.949219 205.808594 169.121094 205.808594 169.328125 L 205.808594 178.226562 C 205.808594 178.4375 205.980469 178.609375 206.1875 178.609375 Z M 206.1875 178.609375 " fill-opacity="1" fill-rule="nonzero"/><path fill="#2d2a2a" d="M 203.128906 178.609375 C 203.339844 178.609375 203.511719 178.4375 203.511719 178.226562 L 203.511719 169.328125 C 203.511719 169.117188 203.339844 168.949219 203.128906 168.949219 C 202.917969 168.949219 202.75 169.121094 202.75 169.328125 L 202.75 178.226562 C 202.75 178.4375 202.921875 178.609375 203.128906 178.609375 Z M 203.128906 178.609375 " fill-opacity="1" fill-rule="nonzero"/><path fill="#2d2a2a" d="M 204.660156 181.023438 C 204.871094 181.023438 205.039062 180.851562 205.039062 180.640625 L 205.039062 166.914062 C 205.039062 166.703125 204.867188 166.53125 204.660156 166.53125 C 204.449219 166.53125 204.28125 166.703125 204.28125 166.914062 L 204.28125 180.640625 C 204.28125 180.851562 204.449219 181.023438 204.660156 181.023438 Z M 204.660156 181.023438 " fill-opacity="1" fill-rule="nonzero"/><path fill="#2d2a2a" d="M 170.410156 176.195312 C 170.199219 176.195312 170.03125 176.023438 170.03125 175.8125 L 170.03125 171.746094 C 170.03125 171.535156 170.203125 171.363281 170.410156 171.363281 C 170.621094 171.363281 170.792969 171.535156 170.792969 171.746094 L 170.792969 175.8125 C 170.792969 176.023438 170.621094 176.195312 170.410156 176.195312 Z M 170.410156 176.195312 " fill-opacity="1" fill-rule="nonzero"/><path fill="#2d2a2a" d="M 175 183.4375 C 174.789062 183.4375 174.617188 183.269531 174.617188 183.058594 L 174.617188 164.5 C 174.617188 164.289062 174.789062 164.117188 175 164.117188 C 175.207031 164.117188 175.378906 164.289062 175.378906 164.5 L 175.378906 183.058594 C 175.378906 183.269531 175.207031 183.4375 175 183.4375 Z M 175 183.4375 " fill-opacity="1" fill-rule="nonzero"/><path fill="#2d2a2a" d="M 171.941406 178.609375 C 171.730469 178.609375 171.558594 178.4375 171.558594 178.226562 L 171.558594 169.328125 C 171.558594 169.117188 171.730469 168.949219 171.941406 168.949219 C 172.148438 168.949219 172.320312 169.121094 172.320312 169.328125 L 172.320312 178.226562 C 172.320312 178.4375 172.148438 178.609375 171.941406 178.609375 Z M 171.941406 178.609375 " fill-opacity="1" fill-rule="nonzero"/><path fill="#2d2a2a" d="M 173.46875 181.023438 C 173.257812 181.023438 173.089844 180.851562 173.089844 180.640625 L 173.089844 166.914062 C 173.089844 166.703125 173.261719 166.53125 173.46875 166.53125 C 173.679688 166.53125 173.847656 166.703125 173.847656 166.914062 L 173.847656 180.640625 C 173.847656 180.851562 173.679688 181.023438 173.46875 181.023438 Z M 173.46875 181.023438 " fill-opacity="1" fill-rule="nonzero"/><path fill="#2d2a2a" d="M 176.71875 181.023438 C 176.507812 181.023438 176.339844 180.851562 176.339844 180.640625 L 176.339844 166.914062 C 176.339844 166.703125 176.507812 166.53125 176.71875 166.53125 C 176.929688 166.53125 177.097656 166.703125 177.097656 166.914062 L 177.097656 180.640625 C 177.097656 180.851562 176.929688 181.023438 176.71875 181.023438 Z M 176.71875 181.023438 " fill-opacity="1" fill-rule="nonzero"/><g clip-path="url(#755bb51931)"><path fill="#2d2a2a" d="M 164.292969 176.195312 C 164.085938 176.195312 163.914062 176.023438 163.914062 175.8125 L 163.914062 171.746094 C 163.914062 171.535156 164.085938 171.363281 164.292969 171.363281 C 164.503906 171.363281 164.675781 171.535156 164.675781 171.746094 L 164.675781 175.8125 C 164.675781 176.023438 164.503906 176.195312 164.292969 176.195312 Z M 164.292969 176.195312 " fill-opacity="1" fill-rule="nonzero"/></g><path fill="#2d2a2a" d="M 165.824219 178.609375 C 165.613281 178.609375 165.445312 178.4375 165.445312 178.226562 L 165.445312 169.328125 C 165.445312 169.117188 165.613281 168.949219 165.824219 168.949219 C 166.035156 168.949219 166.203125 169.121094 166.203125 169.328125 L 166.203125 178.226562 C 166.203125 178.4375 166.035156 178.609375 165.824219 178.609375 Z M 165.824219 178.609375 " fill-opacity="1" fill-rule="nonzero"/><path fill="#2d2a2a" d="M 168.882812 178.609375 C 168.671875 178.609375 168.503906 178.4375 168.503906 178.226562 L 168.503906 169.328125 C 168.503906 169.117188 168.671875 168.949219 168.882812 168.949219 C 169.09375 168.949219 169.261719 169.121094 169.261719 169.328125 L 169.261719 178.226562 C 169.261719 178.4375 169.09375 178.609375 168.882812 178.609375 Z M 168.882812 178.609375 " fill-opacity="1" fill-rule="nonzero"/><path fill="#2d2a2a" d="M 167.351562 181.023438 C 167.140625 181.023438 166.972656 180.851562 166.972656 180.640625 L 166.972656 166.914062 C 166.972656 166.703125 167.144531 166.53125 167.351562 166.53125 C 167.5625 166.53125 167.734375 166.703125 167.734375 166.914062 L 167.734375 180.640625 C 167.734375 180.851562 167.5625 181.023438 167.351562 181.023438 Z M 167.351562 181.023438 " fill-opacity="1" fill-rule="nonzero"/><g fill="#2d2a2a" fill-opacity="0.2902"><g transform="translate(122.747852, 207.637033)"><g><path d="M 5.175781 -3.945312 C 5.308594 -3.929688 5.441406 -3.929688 5.570312 -3.929688 C 8.109375 -3.929688 8.914062 -5.71875 8.914062 -7.039062 C 8.914062 -8.546875 7.785156 -9.882812 5.5 -9.882812 C 5.425781 -9.882812 5.367188 -9.882812 5.308594 -9.882812 C 4.882812 -9.882812 2.976562 -9.824219 2.976562 -9.824219 L 0.617188 -9.824219 C 0.527344 -9.074219 0.570312 -8.445312 1.863281 -8.386719 L 1.863281 -1.4375 C 1.496094 -1.40625 0.820312 -1.277344 0.644531 -1.1875 L 0.601562 0 L 5.5 0 L 5.453125 -1.1875 C 5.277344 -1.277344 4.3125 -1.40625 3.945312 -1.4375 L 3.945312 -4.015625 C 3.945312 -4.015625 5.015625 -3.945312 5.175781 -3.945312 Z M 5.191406 -8.417969 C 6.113281 -8.417969 6.847656 -7.933594 6.847656 -6.933594 C 6.847656 -6.011719 6.203125 -5.308594 4.925781 -5.308594 C 4.75 -5.308594 3.945312 -5.324219 3.945312 -5.324219 L 3.945312 -8.386719 Z M 5.191406 -8.417969 "/></g></g></g><g fill="#2d2a2a" fill-opacity="0.2902"><g transform="translate(133.758068, 207.637033)"><g><path d="M 5.617188 0.175781 C 8.636719 0.175781 10.734375 -1.671875 10.734375 -4.910156 C 10.734375 -8.152344 8.621094 -10 5.617188 -10 C 2.609375 -10 0.511719 -8.152344 0.511719 -4.910156 C 0.511719 -1.671875 2.582031 0.175781 5.617188 0.175781 Z M 5.617188 -8.546875 C 7.300781 -8.546875 8.519531 -7.066406 8.519531 -4.910156 C 8.519531 -2.757812 7.289062 -1.277344 5.617188 -1.277344 C 3.945312 -1.277344 2.710938 -2.757812 2.710938 -4.910156 C 2.710938 -7.066406 3.945312 -8.546875 5.617188 -8.546875 Z M 5.617188 -8.546875 "/></g></g></g><g fill="#2d2a2a" fill-opacity="0.2902"><g transform="translate(146.894023, 207.637033)"><g><path d="M 2.417969 0 C 2.652344 0 4.265625 0.0742188 4.96875 0.0742188 C 8.402344 0.0742188 10.628906 -1.628906 10.628906 -5.042969 C 10.628906 -8.109375 8.386719 -9.882812 4.957031 -9.882812 C 4.339844 -9.882812 3.578125 -9.839844 3.183594 -9.824219 L 0.617188 -9.824219 C 0.527344 -9.089844 0.558594 -8.445312 1.863281 -8.386719 L 1.863281 -1.4375 C 1.496094 -1.40625 0.820312 -1.277344 0.644531 -1.1875 L 0.601562 0 Z M 3.945312 -8.359375 C 4.207031 -8.386719 4.707031 -8.402344 4.851562 -8.402344 C 7.039062 -8.402344 8.476562 -7.40625 8.476562 -4.957031 C 8.476562 -2.582031 7.214844 -1.421875 5.015625 -1.421875 C 4.617188 -1.421875 4.296875 -1.4375 3.945312 -1.464844 Z M 3.945312 -8.359375 "/></g></g></g><g fill="#2d2a2a" fill-opacity="0.2902"><g transform="translate(159.942017, 207.637033)"><g><path d="M 2.417969 0 C 2.652344 0 4.265625 0.0742188 4.96875 0.0742188 C 8.402344 0.0742188 10.628906 -1.628906 10.628906 -5.042969 C 10.628906 -8.109375 8.386719 -9.882812 4.957031 -9.882812 C 4.339844 -9.882812 3.578125 -9.839844 3.183594 -9.824219 L 0.617188 -9.824219 C 0.527344 -9.089844 0.558594 -8.445312 1.863281 -8.386719 L 1.863281 -1.4375 C 1.496094 -1.40625 0.820312 -1.277344 0.644531 -1.1875 L 0.601562 0 Z M 3.945312 -8.359375 C 4.207031 -8.386719 4.707031 -8.402344 4.851562 -8.402344 C 7.039062 -8.402344 8.476562 -7.40625 8.476562 -4.957031 C 8.476562 -2.582031 7.214844 -1.421875 5.015625 -1.421875 C 4.617188 -1.421875 4.296875 -1.4375 3.945312 -1.464844 Z M 3.945312 -8.359375 "/></g></g></g><g fill="#2d2a2a" fill-opacity="0.2902"><g transform="translate(172.990015, 207.637033)"><g><path d="M 5.792969 0.175781 C 6.832031 0.175781 8.003906 -0.117188 8.898438 -0.644531 L 8.796875 -2.140625 C 8.0625 -1.628906 6.804688 -1.277344 5.878906 -1.277344 C 4.046875 -1.277344 2.699219 -2.640625 2.699219 -4.824219 C 2.699219 -7.214844 4.078125 -8.5625 5.777344 -8.5625 C 6.277344 -8.5625 6.730469 -8.488281 7.097656 -8.386719 C 7.230469 -7.464844 7.667969 -6.730469 8.605469 -6.730469 C 8.710938 -6.730469 8.8125 -6.746094 8.929688 -6.757812 L 9.0625 -9.371094 C 8.269531 -9.722656 6.933594 -10 5.734375 -10 C 2.917969 -10 0.511719 -8.488281 0.511719 -4.839844 C 0.511719 -1.699219 2.640625 0.175781 5.792969 0.175781 Z M 5.792969 0.175781 "/></g></g></g><g fill="#2d2a2a" fill-opacity="0.2902"><g transform="translate(184.703929, 207.637033)"><g><path d="M 4.28125 0 C 4.265625 -0.394531 4.253906 -0.792969 4.253906 -1.1875 C 4.0625 -1.277344 3.359375 -1.40625 2.992188 -1.4375 C 3.078125 -1.6875 3.183594 -1.933594 3.285156 -2.183594 L 3.503906 -2.800781 L 7.171875 -2.800781 L 7.652344 -1.4375 C 7.289062 -1.40625 6.597656 -1.277344 6.421875 -1.1875 C 6.40625 -0.792969 6.394531 -0.394531 6.394531 0 L 10.96875 0 C 10.953125 -0.394531 10.9375 -0.792969 10.9375 -1.1875 C 10.746094 -1.277344 10.234375 -1.40625 9.867188 -1.4375 L 6.789062 -9.984375 L 2.945312 -9.765625 C 2.917969 -9.617188 2.917969 -9.5 2.917969 -9.371094 C 2.933594 -8.929688 3.210938 -8.59375 3.636719 -8.488281 L 4.003906 -8.488281 L 1.277344 -1.421875 C 0.921875 -1.363281 0.46875 -1.261719 0.308594 -1.1875 L 0.265625 0 Z M 5.324219 -8.050781 L 5.382812 -8.050781 L 5.5 -7.464844 L 6.671875 -4.222656 L 4.003906 -4.222656 L 5.207031 -7.464844 Z M 5.324219 -8.050781 "/></g></g></g><g fill="#2d2a2a" fill-opacity="0.2902"><g transform="translate(197.854546, 207.637033)"><g><path d="M 3.898438 0.175781 C 5.921875 0.175781 7.476562 -0.910156 7.476562 -2.757812 C 7.476562 -5.675781 2.902344 -5.777344 2.902344 -7.582031 C 2.902344 -8.359375 3.679688 -8.546875 4.339844 -8.546875 C 4.648438 -8.546875 4.96875 -8.488281 5.25 -8.34375 C 5.367188 -7.59375 5.675781 -7.109375 6.570312 -7.109375 C 6.640625 -7.109375 6.714844 -7.125 6.804688 -7.125 L 6.949219 -9.324219 C 6.246094 -9.734375 5.324219 -9.984375 4.28125 -9.984375 C 2.375 -9.984375 0.863281 -8.855469 0.863281 -7.171875 C 0.863281 -4.28125 5.394531 -4.324219 5.394531 -2.433594 C 5.394531 -1.453125 4.296875 -1.261719 3.695312 -1.261719 C 2.945312 -1.261719 2.523438 -1.511719 2.257812 -1.714844 C 2.316406 -2.859375 1.980469 -3.488281 1.171875 -3.488281 C 1.042969 -3.488281 0.878906 -3.476562 0.71875 -3.429688 L 0.410156 -1.070312 C 0.878906 -0.425781 2.347656 0.175781 3.898438 0.175781 Z M 3.898438 0.175781 "/></g></g></g><g fill="#2d2a2a" fill-opacity="0.2902"><g transform="translate(207.750589, 207.637033)"><g><path d="M 1.523438 -6.789062 C 1.640625 -7.039062 1.730469 -8.003906 1.746094 -8.386719 L 3.621094 -8.359375 L 3.621094 -1.4375 C 3.253906 -1.40625 2.582031 -1.277344 2.40625 -1.1875 L 2.359375 0 L 6.964844 0 L 6.921875 -1.1875 C 6.746094 -1.277344 6.070312 -1.40625 5.703125 -1.4375 L 5.703125 -8.359375 L 7.582031 -8.402344 C 7.609375 -8.019531 7.710938 -6.964844 7.800781 -6.789062 L 8.988281 -6.875 L 9.03125 -9.824219 L 0.292969 -9.824219 L 0.335938 -6.875 Z M 1.523438 -6.789062 "/></g></g></g><g fill="#2d2a2a" fill-opacity="0.2902"><g transform="translate(218.96605, 207.637033)"><g><path d="M 5.207031 0 L 5.160156 -1.1875 C 4.984375 -1.277344 4.3125 -1.40625 3.945312 -1.4375 L 3.945312 -8.386719 C 4.3125 -8.417969 4.96875 -8.546875 5.160156 -8.636719 C 5.160156 -9.03125 5.175781 -9.429688 5.191406 -9.824219 L 0.617188 -9.824219 L 0.660156 -8.636719 C 0.835938 -8.546875 1.496094 -8.417969 1.863281 -8.386719 L 1.863281 -1.4375 C 1.496094 -1.40625 0.820312 -1.277344 0.644531 -1.1875 L 0.601562 0 Z M 5.207031 0 "/></g></g></g><g fill="#2d2a2a" fill-opacity="0.2902"><g transform="translate(226.677708, 207.637033)"><g><path d="M 10.335938 -8.386719 C 10.703125 -8.417969 11.363281 -8.546875 11.539062 -8.636719 L 11.582031 -9.824219 L 7.582031 -9.824219 C 7.582031 -9.429688 7.59375 -9.03125 7.609375 -8.636719 C 7.785156 -8.546875 8.460938 -8.417969 8.828125 -8.386719 L 8.8125 -3.269531 L 3.78125 -9.824219 L 0.617188 -9.824219 L 0.660156 -8.636719 C 0.835938 -8.546875 1.496094 -8.417969 1.863281 -8.386719 L 1.863281 -1.4375 C 1.496094 -1.40625 0.820312 -1.277344 0.644531 -1.1875 L 0.601562 0 L 4.632812 0 C 4.632812 -0.394531 4.617188 -0.792969 4.605469 -1.1875 C 4.429688 -1.277344 3.753906 -1.40625 3.386719 -1.4375 L 3.386719 -7.183594 L 8.988281 0.101562 C 9.382812 0.0585938 9.941406 0.03125 10.335938 0 Z M 10.335938 -8.386719 "/></g></g></g><g fill="#2d2a2a" fill-opacity="0.2902"><g transform="translate(240.766574, 207.637033)"><g><path d="M 5.792969 0.175781 C 6.832031 0.175781 8.371094 -0.0742188 9.3125 -0.660156 L 9.324219 -3.359375 L 9.414062 -4.707031 L 5.996094 -4.675781 L 5.996094 -4.296875 C 5.96875 -3.5625 6.421875 -3.328125 6.949219 -3.300781 L 7.40625 -3.285156 L 7.40625 -1.628906 C 6.804688 -1.394531 6.453125 -1.277344 5.878906 -1.277344 C 4.046875 -1.277344 2.699219 -2.640625 2.699219 -4.824219 C 2.699219 -7.214844 4.078125 -8.5625 5.777344 -8.5625 C 6.320312 -8.5625 6.816406 -8.445312 7.230469 -8.3125 C 7.359375 -7.390625 7.816406 -6.671875 8.753906 -6.671875 C 8.839844 -6.671875 8.945312 -6.671875 9.046875 -6.6875 L 9.179688 -9.3125 C 8.328125 -9.691406 6.933594 -10 5.734375 -10 C 2.917969 -10 0.511719 -8.488281 0.511719 -4.839844 C 0.511719 -1.699219 2.640625 0.175781 5.792969 0.175781 Z M 5.792969 0.175781 "/></g></g></g><g fill="#d8d8d8" fill-opacity="1"><g transform="translate(122.099828, 206.988999)"><g><path d="M 5.175781 -3.945312 C 5.308594 -3.929688 5.441406 -3.929688 5.570312 -3.929688 C 8.109375 -3.929688 8.914062 -5.71875 8.914062 -7.039062 C 8.914062 -8.546875 7.785156 -9.882812 5.5 -9.882812 C 5.425781 -9.882812 5.367188 -9.882812 5.308594 -9.882812 C 4.882812 -9.882812 2.976562 -9.824219 2.976562 -9.824219 L 0.617188 -9.824219 C 0.527344 -9.074219 0.570312 -8.445312 1.863281 -8.386719 L 1.863281 -1.4375 C 1.496094 -1.40625 0.820312 -1.277344 0.644531 -1.1875 L 0.601562 0 L 5.5 0 L 5.453125 -1.1875 C 5.277344 -1.277344 4.3125 -1.40625 3.945312 -1.4375 L 3.945312 -4.015625 C 3.945312 -4.015625 5.015625 -3.945312 5.175781 -3.945312 Z M 5.191406 -8.417969 C 6.113281 -8.417969 6.847656 -7.933594 6.847656 -6.933594 C 6.847656 -6.011719 6.203125 -5.308594 4.925781 -5.308594 C 4.75 -5.308594 3.945312 -5.324219 3.945312 -5.324219 L 3.945312 -8.386719 Z M 5.191406 -8.417969 "/></g></g></g><g fill="#d8d8d8" fill-opacity="1"><g transform="translate(133.110044, 206.988999)"><g><path d="M 5.617188 0.175781 C 8.636719 0.175781 10.734375 -1.671875 10.734375 -4.910156 C 10.734375 -8.152344 8.621094 -10 5.617188 -10 C 2.609375 -10 0.511719 -8.152344 0.511719 -4.910156 C 0.511719 -1.671875 2.582031 0.175781 5.617188 0.175781 Z M 5.617188 -8.546875 C 7.300781 -8.546875 8.519531 -7.066406 8.519531 -4.910156 C 8.519531 -2.757812 7.289062 -1.277344 5.617188 -1.277344 C 3.945312 -1.277344 2.710938 -2.757812 2.710938 -4.910156 C 2.710938 -7.066406 3.945312 -8.546875 5.617188 -8.546875 Z M 5.617188 -8.546875 "/></g></g></g><g fill="#d8d8d8" fill-opacity="1"><g transform="translate(146.245999, 206.988999)"><g><path d="M 2.417969 0 C 2.652344 0 4.265625 0.0742188 4.96875 0.0742188 C 8.402344 0.0742188 10.628906 -1.628906 10.628906 -5.042969 C 10.628906 -8.109375 8.386719 -9.882812 4.957031 -9.882812 C 4.339844 -9.882812 3.578125 -9.839844 3.183594 -9.824219 L 0.617188 -9.824219 C 0.527344 -9.089844 0.558594 -8.445312 1.863281 -8.386719 L 1.863281 -1.4375 C 1.496094 -1.40625 0.820312 -1.277344 0.644531 -1.1875 L 0.601562 0 Z M 3.945312 -8.359375 C 4.207031 -8.386719 4.707031 -8.402344 4.851562 -8.402344 C 7.039062 -8.402344 8.476562 -7.40625 8.476562 -4.957031 C 8.476562 -2.582031 7.214844 -1.421875 5.015625 -1.421875 C 4.617188 -1.421875 4.296875 -1.4375 3.945312 -1.464844 Z M 3.945312 -8.359375 "/></g></g></g><g fill="#d8d8d8" fill-opacity="1"><g transform="translate(159.293993, 206.988999)"><g><path d="M 2.417969 0 C 2.652344 0 4.265625 0.0742188 4.96875 0.0742188 C 8.402344 0.0742188 10.628906 -1.628906 10.628906 -5.042969 C 10.628906 -8.109375 8.386719 -9.882812 4.957031 -9.882812 C 4.339844 -9.882812 3.578125 -9.839844 3.183594 -9.824219 L 0.617188 -9.824219 C 0.527344 -9.089844 0.558594 -8.445312 1.863281 -8.386719 L 1.863281 -1.4375 C 1.496094 -1.40625 0.820312 -1.277344 0.644531 -1.1875 L 0.601562 0 Z M 3.945312 -8.359375 C 4.207031 -8.386719 4.707031 -8.402344 4.851562 -8.402344 C 7.039062 -8.402344 8.476562 -7.40625 8.476562 -4.957031 C 8.476562 -2.582031 7.214844 -1.421875 5.015625 -1.421875 C 4.617188 -1.421875 4.296875 -1.4375 3.945312 -1.464844 Z M 3.945312 -8.359375 "/></g></g></g><g fill="#d8d8d8" fill-opacity="1"><g transform="translate(172.341991, 206.988999)"><g><path d="M 5.792969 0.175781 C 6.832031 0.175781 8.003906 -0.117188 8.898438 -0.644531 L 8.796875 -2.140625 C 8.0625 -1.628906 6.804688 -1.277344 5.878906 -1.277344 C 4.046875 -1.277344 2.699219 -2.640625 2.699219 -4.824219 C 2.699219 -7.214844 4.078125 -8.5625 5.777344 -8.5625 C 6.277344 -8.5625 6.730469 -8.488281 7.097656 -8.386719 C 7.230469 -7.464844 7.667969 -6.730469 8.605469 -6.730469 C 8.710938 -6.730469 8.8125 -6.746094 8.929688 -6.757812 L 9.0625 -9.371094 C 8.269531 -9.722656 6.933594 -10 5.734375 -10 C 2.917969 -10 0.511719 -8.488281 0.511719 -4.839844 C 0.511719 -1.699219 2.640625 0.175781 5.792969 0.175781 Z M 5.792969 0.175781 "/></g></g></g><g fill="#d8d8d8" fill-opacity="1"><g transform="translate(184.055905, 206.988999)"><g><path d="M 4.28125 0 C 4.265625 -0.394531 4.253906 -0.792969 4.253906 -1.1875 C 4.0625 -1.277344 3.359375 -1.40625 2.992188 -1.4375 C 3.078125 -1.6875 3.183594 -1.933594 3.285156 -2.183594 L 3.503906 -2.800781 L 7.171875 -2.800781 L 7.652344 -1.4375 C 7.289062 -1.40625 6.597656 -1.277344 6.421875 -1.1875 C 6.40625 -0.792969 6.394531 -0.394531 6.394531 0 L 10.96875 0 C 10.953125 -0.394531 10.9375 -0.792969 10.9375 -1.1875 C 10.746094 -1.277344 10.234375 -1.40625 9.867188 -1.4375 L 6.789062 -9.984375 L 2.945312 -9.765625 C 2.917969 -9.617188 2.917969 -9.5 2.917969 -9.371094 C 2.933594 -8.929688 3.210938 -8.59375 3.636719 -8.488281 L 4.003906 -8.488281 L 1.277344 -1.421875 C 0.921875 -1.363281 0.46875 -1.261719 0.308594 -1.1875 L 0.265625 0 Z M 5.324219 -8.050781 L 5.382812 -8.050781 L 5.5 -7.464844 L 6.671875 -4.222656 L 4.003906 -4.222656 L 5.207031 -7.464844 Z M 5.324219 -8.050781 "/></g></g></g><g fill="#d8d8d8" fill-opacity="1"><g transform="translate(197.206522, 206.988999)"><g><path d="M 3.898438 0.175781 C 5.921875 0.175781 7.476562 -0.910156 7.476562 -2.757812 C 7.476562 -5.675781 2.902344 -5.777344 2.902344 -7.582031 C 2.902344 -8.359375 3.679688 -8.546875 4.339844 -8.546875 C 4.648438 -8.546875 4.96875 -8.488281 5.25 -8.34375 C 5.367188 -7.59375 5.675781 -7.109375 6.570312 -7.109375 C 6.640625 -7.109375 6.714844 -7.125 6.804688 -7.125 L 6.949219 -9.324219 C 6.246094 -9.734375 5.324219 -9.984375 4.28125 -9.984375 C 2.375 -9.984375 0.863281 -8.855469 0.863281 -7.171875 C 0.863281 -4.28125 5.394531 -4.324219 5.394531 -2.433594 C 5.394531 -1.453125 4.296875 -1.261719 3.695312 -1.261719 C 2.945312 -1.261719 2.523438 -1.511719 2.257812 -1.714844 C 2.316406 -2.859375 1.980469 -3.488281 1.171875 -3.488281 C 1.042969 -3.488281 0.878906 -3.476562 0.71875 -3.429688 L 0.410156 -1.070312 C 0.878906 -0.425781 2.347656 0.175781 3.898438 0.175781 Z M 3.898438 0.175781 "/></g></g></g><g fill="#d8d8d8" fill-opacity="1"><g transform="translate(207.102565, 206.988999)"><g><path d="M 1.523438 -6.789062 C 1.640625 -7.039062 1.730469 -8.003906 1.746094 -8.386719 L 3.621094 -8.359375 L 3.621094 -1.4375 C 3.253906 -1.40625 2.582031 -1.277344 2.40625 -1.1875 L 2.359375 0 L 6.964844 0 L 6.921875 -1.1875 C 6.746094 -1.277344 6.070312 -1.40625 5.703125 -1.4375 L 5.703125 -8.359375 L 7.582031 -8.402344 C 7.609375 -8.019531 7.710938 -6.964844 7.800781 -6.789062 L 8.988281 -6.875 L 9.03125 -9.824219 L 0.292969 -9.824219 L 0.335938 -6.875 Z M 1.523438 -6.789062 "/></g></g></g><g fill="#d8d8d8" fill-opacity="1"><g transform="translate(218.318026, 206.988999)"><g><path d="M 5.207031 0 L 5.160156 -1.1875 C 4.984375 -1.277344 4.3125 -1.40625 3.945312 -1.4375 L 3.945312 -8.386719 C 4.3125 -8.417969 4.96875 -8.546875 5.160156 -8.636719 C 5.160156 -9.03125 5.175781 -9.429688 5.191406 -9.824219 L 0.617188 -9.824219 L 0.660156 -8.636719 C 0.835938 -8.546875 1.496094 -8.417969 1.863281 -8.386719 L 1.863281 -1.4375 C 1.496094 -1.40625 0.820312 -1.277344 0.644531 -1.1875 L 0.601562 0 Z M 5.207031 0 "/></g></g></g><g fill="#d8d8d8" fill-opacity="1"><g transform="translate(226.029684, 206.988999)"><g><path d="M 10.335938 -8.386719 C 10.703125 -8.417969 11.363281 -8.546875 11.539062 -8.636719 L 11.582031 -9.824219 L 7.582031 -9.824219 C 7.582031 -9.429688 7.59375 -9.03125 7.609375 -8.636719 C 7.785156 -8.546875 8.460938 -8.417969 8.828125 -8.386719 L 8.8125 -3.269531 L 3.78125 -9.824219 L 0.617188 -9.824219 L 0.660156 -8.636719 C 0.835938 -8.546875 1.496094 -8.417969 1.863281 -8.386719 L 1.863281 -1.4375 C 1.496094 -1.40625 0.820312 -1.277344 0.644531 -1.1875 L 0.601562 0 L 4.632812 0 C 4.632812 -0.394531 4.617188 -0.792969 4.605469 -1.1875 C 4.429688 -1.277344 3.753906 -1.40625 3.386719 -1.4375 L 3.386719 -7.183594 L 8.988281 0.101562 C 9.382812 0.0585938 9.941406 0.03125 10.335938 0 Z M 10.335938 -8.386719 "/></g></g></g><g fill="#d8d8d8" fill-opacity="1"><g transform="translate(240.11855, 206.988999)"><g><path d="M 5.792969 0.175781 C 6.832031 0.175781 8.371094 -0.0742188 9.3125 -0.660156 L 9.324219 -3.359375 L 9.414062 -4.707031 L 5.996094 -4.675781 L 5.996094 -4.296875 C 5.96875 -3.5625 6.421875 -3.328125 6.949219 -3.300781 L 7.40625 -3.285156 L 7.40625 -1.628906 C 6.804688 -1.394531 6.453125 -1.277344 5.878906 -1.277344 C 4.046875 -1.277344 2.699219 -2.640625 2.699219 -4.824219 C 2.699219 -7.214844 4.078125 -8.5625 5.777344 -8.5625 C 6.320312 -8.5625 6.816406 -8.445312 7.230469 -8.3125 C 7.359375 -7.390625 7.816406 -6.671875 8.753906 -6.671875 C 8.839844 -6.671875 8.945312 -6.671875 9.046875 -6.6875 L 9.179688 -9.3125 C 8.328125 -9.691406 6.933594 -10 5.734375 -10 C 2.917969 -10 0.511719 -8.488281 0.511719 -4.839844 C 0.511719 -1.699219 2.640625 0.175781 5.792969 0.175781 Z M 5.792969 0.175781 "/></g></g></g></svg>